HIERARCHY
ROOT Hips
{
	OFFSET 0.000000 97.167313 0.000000
	CHANNELS 6 Xposition Yposition Zposition Xrotation Yrotation Zrotation
	JOINT Spine
	{
		OFFSET 0.000000 13.784798 0.064400
		CHANNELS 3 Xrotation Yrotation Zrotation
		JOINT Spine1
		{
			OFFSET 0.000000 12.037903 0.404700
			CHANNELS 3 Xrotation Yrotation Zrotation
			JOINT Spine2
			{
				OFFSET 0.000000 17.795601 0.420200
				CHANNELS 3 Xrotation Yrotation Zrotation
				JOINT Neck
				{
					OFFSET 0.000000 39.131302 11.954600
					CHANNELS 3 Xrotation Yrotation Zrotation
					JOINT Head
					{
						OFFSET 0.000000 14.456192 15.627699
						CHANNELS 3 Xrotation Yrotation Zrotation
						JOINT HeadTop_End
						{
							OFFSET 0.000000 15.703506 7.603401
							CHANNELS 3 Xrotation Yrotation Zrotation
							End Site
							{
								OFFSET 0.000000 17.447403 0.000000
							}
						}
					}
				}
				JOINT LeftShoulder
				{
					OFFSET 17.399500 24.608795 1.168800
					CHANNELS 3 Xrotation Yrotation Zrotation
					JOINT LeftArm
					{
						OFFSET 18.980635 5.765305 1.818600
						CHANNELS 3 Xrotation Yrotation Zrotation
						JOINT LeftForeArm
						{
							OFFSET 49.290169 0.000000 0.000000
							CHANNELS 3 Xrotation Yrotation Zrotation
							JOINT LeftHand
							{
								OFFSET 31.562012 0.000000 0.000000
								CHANNELS 3 Xrotation Yrotation Zrotation
								JOINT LeftHandThumb1
								{
									OFFSET 6.133995 -4.388519 7.076070
									CHANNELS 3 Xrotation Yrotation Zrotation
									JOINT LeftHandThumb2
									{
										OFFSET 6.037666 -3.485840 3.485847
										CHANNELS 3 Xrotation Yrotation Zrotation
										JOINT LeftHandThumb3
										{
											OFFSET 6.496506 -3.750763 3.750761
											CHANNELS 3 Xrotation Yrotation Zrotation
											JOINT LeftHandThumb4
											{
												OFFSET 5.616882 -3.242905 3.242910
												CHANNELS 3 Xrotation Yrotation Zrotation
												End Site
												{
													OFFSET -1.254608 7.132141 0.375429
												}
											}
										}
									}
								}
								JOINT LeftHandPinky1
								{
									OFFSET 18.920792 -0.453171 -11.426712
									CHANNELS 3 Xrotation Yrotation Zrotation
									JOINT LeftHandPinky2
									{
										OFFSET 4.919586 0.000000 0.000000
										CHANNELS 3 Xrotation Yrotation Zrotation
										JOINT LeftHandPinky3
										{
											OFFSET 5.233047 0.000000 0.000000
											CHANNELS 3 Xrotation Yrotation Zrotation
											JOINT LeftHandPinky4
											{
												OFFSET 5.571716 0.000000 0.000000
												CHANNELS 3 Xrotation Yrotation Zrotation
												End Site
												{
													OFFSET -3.459808 4.342407 -0.466164
												}
											}
										}
									}
								}
								JOINT LeftHandRing1
								{
									OFFSET 22.726120 -0.094986 -6.500475
									CHANNELS 3 Xrotation Yrotation Zrotation
									JOINT LeftHandRing2
									{
										OFFSET 6.408615 0.000000 0.000000
										CHANNELS 3 Xrotation Yrotation Zrotation
										JOINT LeftHandRing3
										{
											OFFSET 6.150223 0.000000 0.000000
											CHANNELS 3 Xrotation Yrotation Zrotation
											JOINT LeftHandRing4
											{
												OFFSET 6.145386 0.000000 0.000000
												CHANNELS 3 Xrotation Yrotation Zrotation
												End Site
												{
													OFFSET -3.671402 4.923981 -0.202372
												}
											}
										}
									}
								}
								JOINT LeftHandMiddle1
								{
									OFFSET 23.373947 0.000000 0.000001
									CHANNELS 3 Xrotation Yrotation Zrotation
									JOINT LeftHandMiddle2
									{
										OFFSET 6.996567 0.000000 0.000000
										CHANNELS 3 Xrotation Yrotation Zrotation
										JOINT LeftHandMiddle3
										{
											OFFSET 7.015945 0.000000 0.000000
											CHANNELS 3 Xrotation Yrotation Zrotation
											JOINT LeftHandMiddle4
											{
												OFFSET 7.721573 0.000000 0.000000
												CHANNELS 3 Xrotation Yrotation Zrotation
												End Site
												{
													OFFSET -4.651108 6.158463 0.251582
												}
											}
										}
									}
								}
								JOINT LeftHandIndex1
								{
									OFFSET 21.310577 -0.490082 6.209344
									CHANNELS 3 Xrotation Yrotation Zrotation
									JOINT LeftHandIndex2
									{
										OFFSET 7.536453 0.000000 0.000000
										CHANNELS 3 Xrotation Yrotation Zrotation
										JOINT LeftHandIndex3
										{
											OFFSET 7.512344 0.000000 0.000000
											CHANNELS 3 Xrotation Yrotation Zrotation
											JOINT LeftHandIndex4
											{
												OFFSET 10.212402 0.000000 0.000001
												CHANNELS 3 Xrotation Yrotation Zrotation
												End Site
												{
													OFFSET -5.180801 8.690506 1.388433
												}
											}
										}
									}
								}
							}
						}
					}
				}
				JOINT RightShoulder
				{
					OFFSET -17.399500 24.608795 1.168800
					CHANNELS 3 Xrotation Yrotation Zrotation
					JOINT RightArm
					{
						OFFSET -18.980635 5.765305 1.818600
						CHANNELS 3 Xrotation Yrotation Zrotation
						JOINT RightForeArm
						{
							OFFSET -49.290169 0.000000 0.000000
							CHANNELS 3 Xrotation Yrotation Zrotation
							JOINT RightHand
							{
								OFFSET -31.562012 0.000000 0.000000
								CHANNELS 3 Xrotation Yrotation Zrotation
								JOINT RightHandThumb1
								{
									OFFSET -6.133995 -4.388519 7.076070
									CHANNELS 3 Xrotation Yrotation Zrotation
									JOINT RightHandThumb2
									{
										OFFSET -6.037666 -3.485840 3.485847
										CHANNELS 3 Xrotation Yrotation Zrotation
										JOINT RightHandThumb3
										{
											OFFSET -6.496506 -3.750763 3.750761
											CHANNELS 3 Xrotation Yrotation Zrotation
											JOINT RightHandThumb4
											{
												OFFSET -5.616882 -3.242905 3.242910
												CHANNELS 3 Xrotation Yrotation Zrotation
												End Site
												{
													OFFSET 1.254608 7.132141 0.375429
												}
											}
										}
									}
								}
								JOINT RightHandIndex1
								{
									OFFSET -21.310577 -0.490082 6.209344
									CHANNELS 3 Xrotation Yrotation Zrotation
									JOINT RightHandIndex2
									{
										OFFSET -7.536453 0.000000 0.000000
										CHANNELS 3 Xrotation Yrotation Zrotation
										JOINT RightHandIndex3
										{
											OFFSET -7.512344 0.000000 0.000000
											CHANNELS 3 Xrotation Yrotation Zrotation
											JOINT RightHandIndex4
											{
												OFFSET -10.212402 0.000000 0.000001
												CHANNELS 3 Xrotation Yrotation Zrotation
												End Site
												{
													OFFSET 5.180801 8.690506 1.388433
												}
											}
										}
									}
								}
								JOINT RightHandMiddle1
								{
									OFFSET -23.373947 0.000000 0.000001
									CHANNELS 3 Xrotation Yrotation Zrotation
									JOINT RightHandMiddle2
									{
										OFFSET -6.996567 0.000000 0.000000
										CHANNELS 3 Xrotation Yrotation Zrotation
										JOINT RightHandMiddle3
										{
											OFFSET -7.015945 0.000000 0.000000
											CHANNELS 3 Xrotation Yrotation Zrotation
											JOINT RightHandMiddle4
											{
												OFFSET -7.721573 0.000000 0.000000
												CHANNELS 3 Xrotation Yrotation Zrotation
												End Site
												{
													OFFSET 4.651108 6.158463 0.251582
												}
											}
										}
									}
								}
								JOINT RightHandRing1
								{
									OFFSET -22.726120 -0.094986 -6.500475
									CHANNELS 3 Xrotation Yrotation Zrotation
									JOINT RightHandRing2
									{
										OFFSET -6.408615 0.000000 0.000000
										CHANNELS 3 Xrotation Yrotation Zrotation
										JOINT RightHandRing3
										{
											OFFSET -6.150223 0.000000 0.000000
											CHANNELS 3 Xrotation Yrotation Zrotation
											JOINT RightHandRing4
											{
												OFFSET -6.145386 0.000000 0.000000
												CHANNELS 3 Xrotation Yrotation Zrotation
												End Site
												{
													OFFSET 3.671402 4.923981 -0.202372
												}
											}
										}
									}
								}
								JOINT RightHandPinky1
								{
									OFFSET -18.920792 -0.453171 -11.426712
									CHANNELS 3 Xrotation Yrotation Zrotation
									JOINT RightHandPinky2
									{
										OFFSET -4.919586 0.000000 0.000000
										CHANNELS 3 Xrotation Yrotation Zrotation
										JOINT RightHandPinky3
										{
											OFFSET -5.233047 0.000000 0.000000
											CHANNELS 3 Xrotation Yrotation Zrotation
											JOINT RightHandPinky4
											{
												OFFSET -5.571716 0.000000 0.000000
												CHANNELS 3 Xrotation Yrotation Zrotation
												End Site
												{
													OFFSET 3.459808 4.342407 -0.466164
												}
											}
										}
									}
								}
							}
						}
					}
				}
			}
		}
	}
	JOINT LeftUpLeg
	{
		OFFSET 19.899099 -7.885101 -3.429500
		CHANNELS 3 Xrotation Yrotation Zrotation
		JOINT LeftLeg
		{
			OFFSET 1.745560 -36.997807 10.304700
			CHANNELS 3 Xrotation Yrotation Zrotation
			JOINT LeftFoot
			{
				OFFSET -1.745558 -29.803308 -13.615400
				CHANNELS 3 Xrotation Yrotation Zrotation
				JOINT LeftToeBase
				{
					OFFSET 1.181900 -18.539904 15.226099
					CHANNELS 3 Xrotation Yrotation Zrotation
					JOINT LeftToe_End
					{
						OFFSET -0.863701 1.402801 16.534700
						CHANNELS 3 Xrotation Yrotation Zrotation
						End Site
						{
							OFFSET 0.000000 16.616566 0.000000
						}
					}
				}
			}
		}
	}
	JOINT RightUpLeg
	{
		OFFSET -19.899099 -7.885101 -3.429500
		CHANNELS 3 Xrotation Yrotation Zrotation
		JOINT RightLeg
		{
			OFFSET -1.745560 -36.997807 10.304700
			CHANNELS 3 Xrotation Yrotation Zrotation
			JOINT RightFoot
			{
				OFFSET 1.745558 -29.803308 -13.615400
				CHANNELS 3 Xrotation Yrotation Zrotation
				JOINT RightToeBase
				{
					OFFSET -1.181900 -18.539904 15.226099
					CHANNELS 3 Xrotation Yrotation Zrotation
					JOINT RightToe_End
					{
						OFFSET 0.863701 1.402801 16.534700
						CHANNELS 3 Xrotation Yrotation Zrotation
						End Site
						{
							OFFSET 0.000000 16.616566 0.000000
						}
					}
				}
			}
		}
	}
}
MOTION
Frames: 5
Frame Time: 0.033333
-1.681938 77.870117 -7.600229 2.223341 16.732577 -2.194539 12.297009 -2.093966 -6.811634 5.829909 -2.482126 -4.761630 7.421243 -2.438824 -3.394988 -16.270404 41.843300 10.381124 -16.365692 28.440793 3.323388 -0.000000 -0.000001 0.000001 -4.615829 -19.277490 -1.613098 -23.423080 12.523551 -25.220711 0.059938 -50.225099 0.007888 8.144237 -9.800451 20.136940 -1.064257 -7.954935 8.490069 3.624169 25.487078 -0.402890 1.565995 7.134372 4.750166 -0.000001 -0.000001 0.000000 -3.523957 10.639570 -29.549905 0.267614 0.285645 -61.408223 0.306763 0.250289 -62.507139 0.000001 0.000004 -0.000002 6.898000 3.789433 -33.663376 0.114603 0.400420 -46.680573 0.458078 0.799582 -60.109394 0.000000 0.000002 0.000005 8.347430 -0.084245 -19.674997 0.276028 0.696225 -48.142192 0.506181 0.181148 -63.993484 0.000002 0.000002 0.000004 13.098904 -2.072589 -9.292861 -0.128815 0.367111 -50.953635 -0.087902 0.357076 -53.449529 -0.000001 0.000000 -0.000002 -6.203821 10.537572 4.101398 -49.146421 -19.775938 22.838662 27.845962 109.660483 -26.399048 -8.044699 4.138430 -11.349520 -3.631355 7.410797 -5.776921 9.793450 -37.245407 0.756700 6.080300 -42.756844 -19.237168 0.000003 -0.000001 0.000004 12.222565 0.888969 6.958112 -0.449460 -0.337858 78.489556 -0.290529 -0.218806 62.441637 0.000003 -0.000003 -0.000001 8.110302 -6.722012 10.979317 0.712330 -0.596867 72.058762 0.666772 -0.062666 72.694940 0.000002 0.000002 -0.000001 8.236446 -12.755876 16.106138 0.531697 -0.272766 79.903583 0.631568 -0.590985 82.865774 -0.000004 -0.000001 -0.000002 7.616217 -15.904476 28.318436 0.499592 -0.126129 100.381747 0.481398 -0.094227 76.369103 -0.000001 0.000003 0.000003 -37.355370 3.674149 36.113133 45.196991 -4.349500 -11.378521 -4.387103 5.639122 -13.335093 -1.615436 1.233147 -0.429321 -0.000000 0.000000 0.000000 -39.797511 -18.296721 -25.323652 72.168175 13.945109 -8.951461 18.579088 4.168931 -1.205595 -32.908364 -6.609952 10.417995 -0.000002 -0.000000 0.000000 
-0.891640 78.814285 -5.992245 1.910444 19.590432 -2.906024 12.638057 -2.169956 -6.760450 6.013129 -2.312161 -4.511938 7.600576 -2.238841 -3.041879 -15.971629 40.431575 10.328109 -16.409236 27.502301 3.413343 -0.000000 -0.000000 -0.000000 -4.595003 -19.359092 -1.507533 -24.339048 13.252483 -25.318989 0.057514 -49.206561 0.004672 7.872106 -8.881724 21.252166 -1.064256 -7.954937 8.490068 3.482204 24.818155 -0.602608 1.492709 6.453848 4.505044 0.000002 0.000001 -0.000002 -3.540739 10.649404 -28.436304 0.261369 0.281457 -59.968098 0.300087 0.245728 -61.041045 0.000003 0.000000 -0.000002 6.903250 3.784573 -32.578332 0.108628 0.394590 -45.267314 0.449582 0.792670 -58.678128 -0.000000 0.000001 0.000003 8.354437 -0.096866 -18.610473 0.269827 0.689775 -46.762525 0.498319 0.174951 -62.604373 -0.000004 -0.000002 0.000006 13.090480 -2.080532 -8.252289 -0.129394 0.367294 -49.614607 -0.087998 0.357004 -52.109921 -0.000001 0.000001 0.000001 -6.279694 10.493176 4.627947 -50.024794 -19.097503 22.550476 27.502812 109.895100 -26.034318 -8.405745 4.793734 -10.038169 -3.573570 7.455642 -5.852951 9.666947 -36.934808 0.770236 6.094882 -42.300420 -19.045626 0.000003 0.000003 0.000006 12.267015 0.833301 7.385595 -0.454342 -0.351623 79.536877 -0.299441 -0.230324 63.359389 0.000001 -0.000001 0.000001 8.108952 -6.702678 11.032795 0.718466 -0.593454 72.598948 0.673605 -0.058103 73.142003 -0.000001 -0.000002 -0.000001 8.104856 -12.757319 16.012072 0.531857 -0.272692 79.895318 0.634659 -0.590164 83.196642 -0.000002 -0.000000 -0.000003 7.246202 -16.080075 28.003700 0.495247 -0.130090 99.406245 0.477656 -0.095910 75.756613 -0.000000 -0.000001 0.000000 -36.553383 4.161538 35.868923 43.484082 -5.129195 -11.093239 -4.867299 4.154682 -13.146068 -1.508884 1.234964 0.232150 -0.000000 0.000002 0.000000 -40.213842 -17.656194 -24.718494 72.515545 13.501958 -8.960276 10.287382 3.302630 -2.995062 -19.983349 -5.003365 13.598247 -0.000000 0.000000 -0.000000 
-0.095309 79.565079 -4.532298 1.725236 22.138334 -3.652689 13.109636 -1.979423 -6.331467 6.154655 -1.888730 -4.384310 7.692594 -1.763284 -2.806920 -15.720802 39.052184 10.173513 -16.318509 26.037579 3.194453 -0.000000 -0.000000 -0.000000 -4.619408 -19.247798 -1.499784 -25.631207 13.181881 -25.780078 0.055244 -48.120455 0.001573 7.616943 -8.005396 22.309693 -1.064256 -7.954938 8.490068 3.338190 24.152777 -0.800892 1.415813 5.773840 4.260422 0.000001 0.000001 -0.000002 -3.631387 10.575078 -26.984606 0.253858 0.276872 -58.064107 0.292356 0.241134 -59.097652 0.000004 -0.000001 -0.000004 6.883409 3.765233 -31.143856 0.100696 0.386563 -43.394162 0.440161 0.786333 -56.773280 -0.000003 0.000001 0.000003 8.363732 -0.114678 -17.199557 0.262677 0.682493 -44.926522 0.489366 0.169834 -60.745203 -0.000002 -0.000004 0.000008 13.092668 -2.062554 -6.869506 -0.131155 0.365954 -47.822577 -0.089676 0.355754 -50.303739 -0.000003 0.000001 0.000001 -6.347642 10.557850 5.079619 -51.603073 -19.223509 21.237597 26.754348 110.430499 -25.236996 -8.791232 5.437955 -8.746127 -3.490208 7.520141 -5.962608 9.484781 -36.487639 0.790968 6.111732 -41.642827 -18.772536 -0.000000 0.000002 -0.000001 12.276838 0.841646 7.416705 -0.456835 -0.359076 80.099281 -0.305632 -0.238816 64.021644 -0.000000 -0.000003 0.000001 8.052218 -6.628938 10.881072 0.718681 -0.593357 72.611290 0.677251 -0.055593 73.381968 -0.000003 0.000003 -0.000004 7.851845 -12.759162 15.831328 0.527329 -0.274414 79.401113 0.634656 -0.590204 83.176070 -0.000000 -0.000000 -0.000005 6.709630 -16.327712 27.547480 0.488806 -0.135402 98.000818 0.472167 -0.098135 74.874029 0.000000 -0.000002 0.000002 -35.895533 4.500199 35.757919 42.250252 -5.742753 -10.840903 -5.752126 2.770587 -12.852335 -1.287887 1.231029 1.059476 -0.000000 -0.000000 0.000000 -39.004762 -17.343652 -24.469247 69.731457 11.890411 -8.645018 2.338961 1.639419 -4.239429 -9.033361 -3.147802 17.973559 -0.000001 -0.000000 0.000000 
0.556348 80.127083 -3.156375 1.647829 23.989766 -4.312157 13.500189 -1.755243 -5.808361 6.213181 -1.511672 -4.316115 7.685516 -1.331860 -2.626705 -15.607462 37.844535 10.026042 -16.080311 25.422283 2.924648 -0.000000 0.000000 0.000001 -4.710536 -19.337744 -1.675997 -26.932512 13.731970 -25.992073 0.052914 -46.994273 -0.001462 7.389058 -7.179370 23.292248 -1.064254 -7.954935 8.490070 3.194460 23.501250 -0.994730 1.336536 5.104515 4.019970 0.000003 0.000001 -0.000001 -3.789320 10.418784 -25.242031 0.245477 0.271932 -55.751371 0.283649 0.236369 -56.729147 0.000001 0.000000 -0.000002 6.839898 3.731759 -29.401372 0.091312 0.376511 -41.111042 0.430249 0.780488 -54.443120 -0.000000 0.000001 0.000002 8.375394 -0.136770 -15.479859 0.254924 0.674473 -42.680510 0.479649 0.165599 -58.462123 -0.000004 0.000000 0.000006 13.104690 -2.019650 -5.179257 -0.133978 0.363189 -45.621876 -0.092715 0.353407 -48.076462 -0.000003 0.000001 0.000001 -6.389095 10.683106 5.354860 -53.168057 -18.676906 20.372663 26.370182 110.718343 -24.826580 -9.194249 6.063361 -7.490504 -3.383458 7.602082 -6.103018 9.252117 -35.916440 0.819484 6.126394 -40.802495 -18.427881 -0.000000 0.000004 0.000003 12.307653 0.962281 7.221433 -0.456641 -0.359361 80.086516 -0.308907 -0.243490 64.377279 -0.000001 -0.000001 -0.000001 7.944471 -6.486813 10.590084 0.713973 -0.595055 72.156038 0.677252 -0.055201 73.365596 0.000000 0.000001 -0.000008 7.487947 -12.759543 15.571788 0.518642 -0.277647 78.452461 0.631559 -0.591246 82.679010 -0.000001 -0.000003 -0.000004 6.017816 -16.634844 26.959807 0.480414 -0.141806 96.204580 0.465172 -0.100761 73.746113 -0.000000 -0.000001 -0.000001 -35.261603 4.679131 35.922810 41.401899 -6.384491 -10.764166 -6.546821 1.841686 -12.546677 -1.190545 1.232157 1.089726 0.000000 0.000001 -0.000000 -36.523204 -16.895960 -24.908599 64.403916 11.073700 -7.990217 -4.307431 -0.562054 -2.392946 -5.111734 -1.874350 10.363005 0.000000 0.000000 0.000000 
1.080362 80.512100 -1.599631 1.770384 25.177904 -4.674746 13.398507 -1.313177 -5.431201 6.404135 -1.032804 -4.307846 7.841740 -0.851112 -2.520710 -15.650115 36.904660 9.947103 -15.705487 24.626092 2.400094 0.000000 0.000000 -0.000000 -4.779114 -19.084344 -1.775435 -27.664298 13.934409 -26.480596 0.050913 -45.855455 -0.004419 7.199708 -6.410702 24.182543 -1.064257 -7.954935 8.490069 3.053713 22.874264 -1.181091 1.256306 4.456177 3.787275 0.000002 0.000001 0.000000 -3.997124 10.193167 -23.307747 0.236694 0.266563 -53.151101 0.274506 0.231369 -54.049882 0.000004 -0.000001 0.000001 6.777858 3.686115 -27.442414 0.080968 0.364678 -38.528448 0.420179 0.774960 -51.792730 -0.000003 -0.000002 -0.000000 8.389170 -0.161981 -13.534612 0.247046 0.665795 -40.125773 0.469590 0.162041 -55.851686 -0.000000 -0.000002 0.000009 13.124495 -1.955820 -3.257747 -0.137696 0.359083 -43.105590 -0.097016 0.350069 -45.517234 -0.000002 0.000003 0.000001 -6.369916 10.869958 5.254102 -54.841382 -18.242342 19.825435 25.606533 111.318785 -24.008725 -9.606402 6.663399 -6.288950 -3.255510 7.699577 -6.271238 8.974109 -35.234135 0.856686 6.133931 -39.797538 -18.022146 0.000001 0.000003 0.000005 12.369078 1.192991 6.846745 -0.452483 -0.354130 79.414917 -0.308945 -0.243813 64.361235 -0.000000 0.000002 0.000002 7.792307 -6.281172 10.173258 0.704951 -0.598278 71.283440 0.673399 -0.054593 72.994109 -0.000003 0.000001 -0.000001 7.023769 -12.756375 15.241275 0.506082 -0.281804 77.090603 0.625755 -0.593085 81.726410 0.000002 0.000001 -0.000003 5.181790 -16.988117 26.250427 0.470123 -0.148760 94.056554 0.456668 -0.103605 72.397321 -0.000000 -0.000001 0.000000 -34.396891 4.931283 36.207898 40.633929 -7.020702 -10.823102 -7.226856 1.351254 -12.635561 -0.919201 1.234230 1.013164 0.000000 -0.000000 -0.000000 -35.082034 -15.681448 -26.033746 57.774262 12.042675 -7.116995 -7.363408 -1.429840 2.087751 -2.162449 -1.126814 4.092336 -0.000001 0.000001 -0.000002 
